<mxfile host="app.diagrams.net" modified="2021-01-31T13:16:16.854Z" agent="5.0 (Windows NT 10.0; Win64; x64) AppleWebKit/537.36 (KHTML, like Gecko) Chrome/88.0.4324.104 Safari/537.36" etag="v4suiWnHNE7vXS9E9YwG" version="14.2.9" type="github">
  <diagram id="C5RBs43oDa-KdzZeNtuy" name="Page-1">
    <mxGraphModel dx="1422" dy="834" grid="1" gridSize="10" guides="1" tooltips="1" connect="1" arrows="1" fold="1" page="1" pageScale="1" pageWidth="827" pageHeight="1169" math="0" shadow="0">
      <root>
        <mxCell id="WIyWlLk6GJQsqaUBKTNV-0" />
        <mxCell id="WIyWlLk6GJQsqaUBKTNV-1" parent="WIyWlLk6GJQsqaUBKTNV-0" />
        <mxCell id="htGSNvJoj5-r1EhyfjVP-1" value="POST TO 4000/events&lt;br&gt;POST TO 4001/events&lt;br&gt;POST TO 4002/events" style="shape=datastore;whiteSpace=wrap;html=1;" vertex="1" parent="WIyWlLk6GJQsqaUBKTNV-1">
          <mxGeometry x="590" y="180" width="200" height="280" as="geometry" />
        </mxCell>
        <mxCell id="htGSNvJoj5-r1EhyfjVP-2" value="LOCALHOST/4000" style="shape=ext;double=1;rounded=1;whiteSpace=wrap;html=1;" vertex="1" parent="WIyWlLk6GJQsqaUBKTNV-1">
          <mxGeometry x="20" y="120" width="180" height="90" as="geometry" />
        </mxCell>
        <mxCell id="htGSNvJoj5-r1EhyfjVP-3" value="LOCALHOST/4002" style="shape=ext;double=1;rounded=1;whiteSpace=wrap;html=1;" vertex="1" parent="WIyWlLk6GJQsqaUBKTNV-1">
          <mxGeometry x="25" y="400" width="175" height="100" as="geometry" />
        </mxCell>
        <mxCell id="htGSNvJoj5-r1EhyfjVP-4" value="LOCALHOST/4001" style="shape=ext;double=1;rounded=1;whiteSpace=wrap;html=1;" vertex="1" parent="WIyWlLk6GJQsqaUBKTNV-1">
          <mxGeometry x="25" y="260" width="170" height="100" as="geometry" />
        </mxCell>
        <mxCell id="htGSNvJoj5-r1EhyfjVP-5" value="" style="ellipse;shape=doubleEllipse;whiteSpace=wrap;html=1;" vertex="1" parent="WIyWlLk6GJQsqaUBKTNV-1">
          <mxGeometry x="380" y="10" width="230" height="170" as="geometry" />
        </mxCell>
        <mxCell id="htGSNvJoj5-r1EhyfjVP-6" value="Post Service" style="text;html=1;strokeColor=none;fillColor=none;align=center;verticalAlign=middle;whiteSpace=wrap;rounded=0;" vertex="1" parent="WIyWlLk6GJQsqaUBKTNV-1">
          <mxGeometry x="55" y="120" width="110" height="50" as="geometry" />
        </mxCell>
        <mxCell id="htGSNvJoj5-r1EhyfjVP-7" value="Query Service" style="text;html=1;strokeColor=none;fillColor=none;align=center;verticalAlign=middle;whiteSpace=wrap;rounded=0;" vertex="1" parent="WIyWlLk6GJQsqaUBKTNV-1">
          <mxGeometry x="57.5" y="400" width="110" height="50" as="geometry" />
        </mxCell>
        <mxCell id="htGSNvJoj5-r1EhyfjVP-8" value="Comments Service" style="text;html=1;strokeColor=none;fillColor=none;align=center;verticalAlign=middle;whiteSpace=wrap;rounded=0;" vertex="1" parent="WIyWlLk6GJQsqaUBKTNV-1">
          <mxGeometry x="55" y="260" width="110" height="50" as="geometry" />
        </mxCell>
        <mxCell id="htGSNvJoj5-r1EhyfjVP-9" value="EVENT" style="text;html=1;strokeColor=none;fillColor=none;align=center;verticalAlign=middle;whiteSpace=wrap;rounded=0;" vertex="1" parent="WIyWlLk6GJQsqaUBKTNV-1">
          <mxGeometry x="470" y="60" width="40" height="20" as="geometry" />
        </mxCell>
        <mxCell id="htGSNvJoj5-r1EhyfjVP-10" value="type:Comment Created" style="text;html=1;strokeColor=none;fillColor=none;align=center;verticalAlign=middle;whiteSpace=wrap;rounded=0;" vertex="1" parent="WIyWlLk6GJQsqaUBKTNV-1">
          <mxGeometry x="470" y="110" width="40" height="20" as="geometry" />
        </mxCell>
        <mxCell id="htGSNvJoj5-r1EhyfjVP-12" style="edgeStyle=orthogonalEdgeStyle;rounded=0;orthogonalLoop=1;jettySize=auto;html=1;exitX=0.5;exitY=1;exitDx=0;exitDy=0;" edge="1" parent="WIyWlLk6GJQsqaUBKTNV-1" source="htGSNvJoj5-r1EhyfjVP-10" target="htGSNvJoj5-r1EhyfjVP-10">
          <mxGeometry relative="1" as="geometry" />
        </mxCell>
        <mxCell id="htGSNvJoj5-r1EhyfjVP-15" value="event bus&lt;br&gt;" style="text;html=1;align=center;verticalAlign=middle;resizable=0;points=[];autosize=1;" vertex="1" parent="WIyWlLk6GJQsqaUBKTNV-1">
          <mxGeometry x="655" y="200" width="70" height="20" as="geometry" />
        </mxCell>
        <mxCell id="htGSNvJoj5-r1EhyfjVP-16" value="" style="edgeStyle=elbowEdgeStyle;elbow=horizontal;endArrow=classic;html=1;exitX=0.994;exitY=0.111;exitDx=0;exitDy=0;exitPerimeter=0;entryX=0;entryY=0.5;entryDx=0;entryDy=0;" edge="1" parent="WIyWlLk6GJQsqaUBKTNV-1" source="htGSNvJoj5-r1EhyfjVP-2" target="htGSNvJoj5-r1EhyfjVP-1">
          <mxGeometry width="50" height="50" relative="1" as="geometry">
            <mxPoint x="390" y="300" as="sourcePoint" />
            <mxPoint x="440" y="250" as="targetPoint" />
          </mxGeometry>
        </mxCell>
        <mxCell id="htGSNvJoj5-r1EhyfjVP-17" value="POST" style="text;html=1;strokeColor=none;fillColor=none;align=center;verticalAlign=middle;whiteSpace=wrap;rounded=0;" vertex="1" parent="WIyWlLk6GJQsqaUBKTNV-1">
          <mxGeometry x="680" y="310" width="40" height="20" as="geometry" />
        </mxCell>
        <mxCell id="htGSNvJoj5-r1EhyfjVP-22" value="" style="edgeStyle=elbowEdgeStyle;elbow=vertical;endArrow=classic;html=1;exitX=-0.01;exitY=0.346;exitDx=0;exitDy=0;exitPerimeter=0;entryX=1;entryY=0.5;entryDx=0;entryDy=0;" edge="1" parent="WIyWlLk6GJQsqaUBKTNV-1" source="htGSNvJoj5-r1EhyfjVP-1" target="htGSNvJoj5-r1EhyfjVP-2">
          <mxGeometry width="50" height="50" relative="1" as="geometry">
            <mxPoint x="390" y="320" as="sourcePoint" />
            <mxPoint x="440" y="270" as="targetPoint" />
          </mxGeometry>
        </mxCell>
        <mxCell id="htGSNvJoj5-r1EhyfjVP-23" value="" style="edgeStyle=elbowEdgeStyle;elbow=vertical;endArrow=classic;html=1;exitX=-0.005;exitY=0.379;exitDx=0;exitDy=0;exitPerimeter=0;entryX=1;entryY=0.25;entryDx=0;entryDy=0;" edge="1" parent="WIyWlLk6GJQsqaUBKTNV-1" source="htGSNvJoj5-r1EhyfjVP-1" target="htGSNvJoj5-r1EhyfjVP-4">
          <mxGeometry width="50" height="50" relative="1" as="geometry">
            <mxPoint x="390" y="320" as="sourcePoint" />
            <mxPoint x="440" y="270" as="targetPoint" />
          </mxGeometry>
        </mxCell>
        <mxCell id="htGSNvJoj5-r1EhyfjVP-24" value="" style="edgeStyle=elbowEdgeStyle;elbow=vertical;endArrow=classic;html=1;exitX=-0.02;exitY=0.775;exitDx=0;exitDy=0;exitPerimeter=0;entryX=1.006;entryY=0.4;entryDx=0;entryDy=0;entryPerimeter=0;" edge="1" parent="WIyWlLk6GJQsqaUBKTNV-1" source="htGSNvJoj5-r1EhyfjVP-1" target="htGSNvJoj5-r1EhyfjVP-3">
          <mxGeometry width="50" height="50" relative="1" as="geometry">
            <mxPoint x="390" y="320" as="sourcePoint" />
            <mxPoint x="170" y="397" as="targetPoint" />
          </mxGeometry>
        </mxCell>
        <mxCell id="htGSNvJoj5-r1EhyfjVP-25" value="{id:&#39;a1jp5&#39;,&amp;nbsp;&lt;br&gt;content : &#39;comment&#39;,&lt;br&gt;postId :j36egh}" style="ellipse;shape=doubleEllipse;whiteSpace=wrap;html=1;" vertex="1" parent="WIyWlLk6GJQsqaUBKTNV-1">
          <mxGeometry x="270" y="420" width="230" height="170" as="geometry" />
        </mxCell>
        <mxCell id="htGSNvJoj5-r1EhyfjVP-26" value="EVENT" style="text;html=1;strokeColor=none;fillColor=none;align=center;verticalAlign=middle;whiteSpace=wrap;rounded=0;" vertex="1" parent="WIyWlLk6GJQsqaUBKTNV-1">
          <mxGeometry x="365" y="450" width="40" height="20" as="geometry" />
        </mxCell>
        <mxCell id="htGSNvJoj5-r1EhyfjVP-27" value="type:Comment Created" style="text;html=1;strokeColor=none;fillColor=none;align=center;verticalAlign=middle;whiteSpace=wrap;rounded=0;" vertex="1" parent="WIyWlLk6GJQsqaUBKTNV-1">
          <mxGeometry x="365" y="540" width="40" height="20" as="geometry" />
        </mxCell>
      </root>
    </mxGraphModel>
  </diagram>
</mxfile>
